<?xml version="1.0" encoding="iso-8859-1"?>
<!-- Uploaded to: SVG Repo, www.svgrepo.com, Generator: SVG Repo Mixer Tools -->
<svg height="800px" width="800px" version="1.1" id="Layer_1" xmlns="http://www.w3.org/2000/svg" xmlns:xlink="http://www.w3.org/1999/xlink" 
	 viewBox="0 0 512 512" xml:space="preserve">
<path style="fill:#F7B239;" d="M413.612,143.233v0.013c-4.417,0.547-11.636,24.498-16.223,24.498
	c-59.68,0-129.655-64.762-129.655-124.443c0-3.31,24.445-13.852,24.745-17.083h0.013c8.196,1.72,16.314,4.587,24.12,8.626
	c13.5,6.971,24.615,16.731,33.033,28.211c7.597,0,14.308,0.847,20.237,2.385C421.535,78.705,413.612,143.233,413.612,143.233z"/>
<path style="fill:#90BC42;" d="M436.533,231.033c23.533,6.958,40.708,28.759,40.708,54.546c0,25.866-17.266,47.718-40.916,54.611
	c0.143-2.893-22.647-5.799-22.647-8.717l-10.424-45.894L436.533,231.033z"/>
<path style="fill:#9AD14B;" d="M436.533,285.58v45.894c0,2.919-0.065,5.825-0.208,8.717c-2.776,58.299-33.202,109.366-78.444,140.34
	c-0.391,0.287-0.795,0.547-1.186,0.821C327.936,500.702,293.3,512,256.007,512s-71.929-11.298-100.688-30.648
	c-0.391-0.274-0.795-0.534-1.186-0.821c-45.242-30.974-75.669-82.041-78.444-140.34c-0.143-2.893-0.208-5.799-0.208-8.717V285.58
	v-54.546v-50.507c0-49.842,20.211-94.98,52.878-127.648S206.151,0,256.007,0c13.995,0,27.612,1.59,40.682,4.6
	c-2.098,6.932-3.531,14.164-4.209,21.618c-0.3,3.232-0.443,6.502-0.443,9.812c0,59.68,48.383,108.05,108.063,108.05
	c4.587,0,9.095-0.287,13.513-0.834c6.242-0.782,12.327-2.098,18.204-3.896c3.075,13.226,4.717,27.013,4.717,41.177v50.507V285.58z"
	/>
<g>
	<path style="fill:#90BC42;" d="M75.688,340.191h-0.013c-23.638-6.893-40.916-28.746-40.916-54.611
		c0-25.788,17.174-47.588,40.721-54.546l25.462,54.546l-1.303,45.894C99.639,334.392,75.545,337.298,75.688,340.191z"/>
	<polyline style="fill:#90BC42;" points="146.093,273.253 242.324,273.253 188.899,288.928 	"/>
	<path style="fill:#90BC42;" d="M191.609,273.253c0,0,3.179,59.941-49.06,83.344c0,0,36.577-35.091,14.425-66.365"/>
	<path style="fill:#90BC42;" d="M221.771,481.352c-0.391-0.274-0.795-0.534-1.186-0.821c-45.242-30.974-75.669-82.041-78.444-140.34
		c-0.143-2.893-0.208-5.799-0.208-8.717V285.58v-54.546v-50.507c0-49.842,20.211-94.98,52.878-127.648
		c25.227-25.227,57.886-43.014,94.412-49.814C278.458,1.063,267.36,0,256.007,0c-49.855,0-94.98,20.211-127.648,52.878
		S75.48,130.684,75.48,180.527v50.507v54.546v45.894c0,2.919,0.065,5.825,0.208,8.717c2.776,58.299,33.202,109.366,78.444,140.34
		c0.391,0.287,0.795,0.547,1.186,0.821C184.077,500.702,218.713,512,256.007,512c11.354,0,22.456-1.061,33.227-3.064
		C264.626,504.361,241.774,494.811,221.771,481.352z"/>
</g>
<path style="fill:#E6E6E6;" d="M134.365,273.253h57.244c0,21.084-17.096,38.18-38.18,38.18c-12.614,0-23.794-6.111-30.752-15.533
	C115.771,286.518,122.716,273.253,134.365,273.253z"/>
<path style="fill:#E09B2D;" d="M369.881,65.44c-1.264,15.923-5.434,27.86-5.434,27.86c-3.088-10.815-8.079-21.071-14.803-30.244
	C357.242,63.055,363.952,63.902,369.881,65.44z"/>
<path style="fill:#E54728;" d="M132.997,152.289c-1.501,0-3.001-0.572-4.146-1.717c-2.289-2.289-2.289-6.003,0-8.293l63.681-63.668
	c2.291-2.289,6.002-2.289,8.293,0c2.289,2.289,2.289,6.003,0,8.293l-63.681,63.668C135.998,151.717,134.498,152.289,132.997,152.289
	z"/>
<g>
	<path style="fill:#666666;" d="M190.632,119.504c-1.501,0-3.001-0.572-4.146-1.717L161.649,92.95c-2.289-2.291-2.289-6.003,0-8.293
		c2.291-2.289,6.002-2.288,8.293,0l24.836,24.836c2.289,2.289,2.289,6.002,0,8.293C193.633,118.932,192.133,119.504,190.632,119.504
		z"/>
	<path style="fill:#666666;" d="M163.88,146.243c-1.501,0-3.001-0.572-4.146-1.717l-24.826-24.839
		c-2.288-2.291-2.287-6.003,0.004-8.293c2.291-2.288,6.003-2.287,8.293,0.004l24.821,24.834c2.289,2.289,2.289,6.003,0,8.293
		C166.881,145.671,165.381,146.243,163.88,146.243z"/>
</g>
<path style="fill:#90BC42;" d="M320.404,273.253c0,0-3.18,59.941,49.06,83.344c0,0-36.577-35.091-14.425-66.365"/>
<g>
	<path style="fill:#995C0D;" d="M226.844,249.081h-92.478c-5.397,0-9.773-4.376-9.773-9.773s4.376-9.773,9.773-9.773h92.478
		c5.397,0,9.773,4.376,9.773,9.773S232.241,249.081,226.844,249.081z"/>
	<path style="fill:#995C0D;" d="M377.648,249.081h-92.492c-5.397,0-9.773-4.376-9.773-9.773s4.376-9.773,9.773-9.773h92.492
		c5.397,0,9.773,4.376,9.773,9.773S383.045,249.081,377.648,249.081z"/>
</g>
<g>
	<path style="fill:#90BC42;" d="M303.179,344.045h-45.146c-3.722,0-6.865-2.761-7.344-6.451l-8.364-64.341l-6.378,79.427
		c-0.413,5.145,4.43,9.124,9.396,7.719L303.179,344.045z"/>
	<polyline style="fill:#90BC42;" points="377.648,273.253 281.416,273.253 334.842,288.928 	"/>
</g>
<path style="fill:#E6E6E6;" d="M389.336,295.9c-6.958,9.421-18.139,15.533-30.752,15.533c-17.461,0-32.186-11.728-36.72-27.729
	c-0.951-3.323-1.459-6.828-1.459-10.451h57.244c6.919,0,12.184,4.678,13.865,10.451C392.659,287.651,392.138,292.095,389.336,295.9z
	"/>
<g>
	<path style="fill:#CCCCCC;" d="M391.512,283.703h-69.649c-0.951-3.323-1.459-6.828-1.459-10.451h57.244
		C384.567,273.253,389.831,277.931,391.512,283.703z"/>
	<path style="fill:#CCCCCC;" d="M120.501,283.703h69.649c0.951-3.323,1.459-6.828,1.459-10.451h-57.244
		C127.446,273.253,122.182,277.931,120.501,283.703z"/>
</g>
<path style="fill:#F2F2F2;" d="M304.259,397.187c8.105,9.643,7.024,22.361,0.313,30.961c-0.091-0.143-0.208-0.274-0.326-0.404
	c-11.558-13.734-28.876-22.465-48.239-22.465s-36.694,8.731-48.252,22.465c-0.104,0.13-0.222,0.248-0.326,0.391
	c-6.698-8.6-7.779-21.318,0.326-30.948c11.571-13.734,28.889-22.465,48.252-22.465S292.688,383.453,304.259,397.187z"/>
<g>
	<path style="fill:#F95428;" d="M304.246,427.744c0.117,0.13,0.235,0.261,0.326,0.404c-4.443,5.707-11.363,9.604-19.702,9.604
		h-57.726c-8.353,0-15.272-3.909-19.715-9.617c0.104-0.143,0.222-0.261,0.326-0.391c11.558-13.734,28.889-22.465,48.252-22.465
		S292.688,414.01,304.246,427.744z"/>
	<path style="fill:#F95428;" d="M284.869,473.872c-3.598,0-6.515-2.918-6.515-6.515v-29.606c0-3.598,2.918-6.515,6.515-6.515
		c3.598,0,6.515-5.174,6.515-1.577v37.698C291.385,470.955,288.467,473.872,284.869,473.872z"/>
</g>
</svg>